<svg version="1.1" id="Layer_1" xmlns="http://www.w3.org/2000/svg" xmlns:xlink="http://www.w3.org/1999/xlink" x="0px" y="0px"
	 width="4647" height="760" viewBox="0 0 4647 760" enable-background="new 0 0 4647 760" xml:space="preserve">
<path fill="#FFFFFF" opacity="1.000000" stroke="none" 
	d="
M1161.000000,761.000000 
	C774.333313,761.000000 387.666656,761.000000 1.000000,760.998413 
	C1.000000,759.997192 1.000000,758.997620 1.380190,757.616943 
	C3.525031,757.823853 5.306935,758.967896 7.051652,758.913757 
	C23.899214,758.390930 40.735569,757.331909 57.584839,757.082275 
	C80.078964,756.749146 102.582535,756.879761 125.080620,757.027954 
	C159.501801,757.254700 193.921783,757.665833 228.342194,758.004150 
	C229.335022,758.013855 230.326981,758.093567 231.319778,758.127441 
	C239.748672,758.415527 248.176712,758.787720 256.607849,758.881714 
	C257.722656,758.894104 259.563202,757.651367 259.789856,756.688965 
	C260.050415,755.582642 259.178955,753.857849 258.265198,752.924316 
	C257.320251,751.958923 255.792923,751.384766 254.420029,751.045410 
	C243.322235,748.302185 232.103333,746.000549 221.108170,742.901428 
	C201.872437,737.479736 189.493622,725.030090 183.962250,705.649841 
	C178.078186,685.033997 176.280487,663.781311 176.224564,642.660156 
	C175.810104,486.167786 176.000000,329.673798 176.000000,173.180328 
	C176.000000,171.606964 176.000000,170.033585 176.000000,167.453659 
	C185.163437,178.386108 193.534195,188.549164 202.096161,198.548477 
	C216.810287,215.732727 231.621811,232.833817 246.434204,249.933655 
	C257.604675,262.829163 268.807220,275.697205 280.055847,288.524597 
	C292.510620,302.727417 305.025787,316.877319 317.530121,331.036652 
	C327.753479,342.613098 337.971985,354.194031 348.242859,365.728241 
	C359.620178,378.504944 371.048004,391.236664 382.465881,403.977203 
	C394.105682,416.965393 405.728851,429.968719 417.416656,442.913635 
	C430.442688,457.340729 443.523438,471.718475 456.599091,486.100739 
	C466.909698,497.441742 477.234833,508.769653 487.578644,520.080383 
	C498.596527,532.128113 509.628143,544.163452 520.682800,556.177490 
	C532.639526,569.171875 544.605896,582.157532 556.611572,595.106567 
	C569.975952,609.520996 583.373230,623.904968 596.786804,638.273682 
	C606.827881,649.029724 616.894836,659.761780 626.991211,670.465881 
	C638.916626,683.109131 650.782349,695.811218 662.862183,708.305725 
	C678.804565,724.795288 694.914368,741.123474 711.011719,757.462219 
	C712.084595,758.551147 713.660278,759.144714 715.002075,759.968628 
	C715.680237,758.646973 716.620789,757.391663 716.975769,755.988220 
	C717.526733,753.810242 717.959595,751.531433 717.960083,749.295288 
	C718.003174,552.470154 717.934021,355.644989 718.088013,158.820023 
	C718.106140,135.643616 718.897217,112.444138 720.173340,89.301865 
	C720.869690,76.672882 722.506165,63.957664 725.236816,51.617275 
	C728.037720,38.959106 734.553711,27.807558 747.239014,22.513363 
	C757.283203,18.321386 767.827209,15.281559 778.255310,12.075001 
	C783.009155,10.613230 788.098267,10.246921 792.861877,8.809052 
	C794.218750,8.399491 794.966675,5.972447 795.993835,4.470564 
	C794.643494,3.647091 793.356445,2.681571 791.923523,2.043530 
	C790.702881,1.499989 789.314270,1.333374 788.000000,0.999999 
	C1080.032715,1.000000 1372.065430,1.000000 1664.409424,1.381299 
	C1663.004272,2.175065 1661.302002,2.866138 1659.568726,2.956061 
	C1645.230957,3.699886 1630.879639,4.197985 1616.547852,5.036795 
	C1602.441528,5.862411 1588.360718,7.693835 1574.255493,7.842780 
	C1551.009399,8.088246 1527.744019,7.617223 1504.503418,6.905052 
	C1488.058716,6.401126 1471.648315,4.863435 1455.209595,4.046974 
	C1443.634644,3.472085 1432.039307,3.263389 1420.450195,3.046697 
	C1417.352295,2.988773 1412.655884,1.699899 1412.293457,6.155495 
	C1411.934937,10.562505 1416.644287,10.548473 1419.945923,10.980406 
	C1432.782349,12.659678 1443.786865,18.327864 1452.710693,27.398342 
	C1462.989380,37.846165 1469.194946,51.039566 1473.743896,64.700943 
	C1482.676880,91.528519 1485.717163,119.541519 1485.799316,147.551926 
	C1486.229004,294.031769 1486.023071,440.513519 1485.956665,586.994629 
	C1485.951294,598.915039 1485.690430,610.858765 1484.908203,622.749512 
	C1483.963379,637.115173 1482.695557,651.480896 1480.913940,665.765015 
	C1478.621826,684.140381 1473.522583,701.805481 1464.405884,718.024963 
	C1454.181519,736.214539 1439.871460,748.920349 1418.022095,751.185486 
	C1415.885376,751.407043 1412.443359,754.118164 1412.357300,755.813293 
	C1412.192749,759.057190 1415.629639,759.113220 1418.378906,759.010315 
	C1436.719604,758.323792 1455.057861,757.247620 1473.403687,757.089417 
	C1508.896484,756.783325 1544.394409,756.876526 1579.888916,757.041870 
	C1604.975342,757.158691 1630.060669,757.620789 1655.145020,758.016968 
	C1670.399780,758.257935 1685.651123,758.781433 1700.905762,758.861694 
	C1702.920776,758.872314 1704.945679,757.007996 1706.966064,756.012085 
	C1705.215088,754.346313 1703.668457,751.550171 1701.681274,751.190857 
	C1683.248535,747.858093 1664.994873,743.892029 1647.536743,736.965393 
	C1629.747803,729.907532 1615.699707,718.564880 1606.636475,701.279480 
	C1593.527954,676.278748 1589.397705,648.992859 1589.300537,621.632996 
	C1588.702026,452.823578 1589.000000,284.010956 1589.000000,115.199425 
	C1589.000000,114.532845 1589.026733,113.865005 1588.995605,113.199890 
	C1588.829468,109.659561 1590.640259,107.566490 1593.983643,107.036156 
	C1601.037842,105.917198 1608.096313,104.474396 1615.202515,104.096352 
	C1638.784790,102.841782 1662.381470,101.720116 1685.987305,101.096687 
	C1702.280884,100.666382 1718.524414,100.931206 1734.765015,103.825706 
	C1760.815918,108.468674 1780.713623,122.128662 1794.806274,143.815933 
	C1808.330566,164.628525 1813.436646,188.441925 1814.879883,212.911469 
	C1815.925659,230.639603 1813.287476,248.044403 1806.973145,264.754059 
	C1802.139282,277.546082 1795.749268,289.527527 1786.632812,299.770966 
	C1774.771729,313.098236 1760.652588,323.262634 1743.991333,330.118988 
	C1727.313477,336.982178 1709.963135,340.720642 1692.179810,341.785004 
	C1679.326172,342.554291 1666.298462,341.959442 1653.449463,340.826355 
	C1640.372925,339.673157 1627.434937,337.007538 1614.406982,335.218628 
	C1607.688599,334.296143 1601.398682,335.654419 1595.130981,340.058197 
	C1598.343506,342.728302 1600.906860,344.995148 1603.609009,347.082489 
	C1620.783325,360.349518 1638.650513,372.411560 1658.739624,381.046906 
	C1685.334961,392.478973 1713.242554,397.638123 1741.906738,398.821533 
	C1752.533691,399.260284 1763.249023,397.733521 1773.916016,396.989288 
	C1793.022217,395.656250 1811.124268,390.150208 1828.134155,381.812134 
	C1847.962646,372.092377 1865.677246,359.300812 1880.322754,342.359650 
	C1892.388428,328.402832 1902.247803,313.266235 1910.211426,296.625458 
	C1922.515137,270.916077 1928.189087,243.678268 1929.860840,215.549606 
	C1930.856445,198.799316 1929.110474,182.117386 1926.118408,165.526505 
	C1922.488037,145.396667 1916.446899,126.080528 1907.277954,107.900276 
	C1895.764404,85.071037 1881.318848,64.242096 1862.341064,46.791176 
	C1852.947021,38.152943 1842.461914,31.079359 1831.024292,25.669252 
	C1817.788818,19.408829 1803.949829,14.813550 1789.532471,11.631412 
	C1771.335327,7.615010 1753.056030,4.862253 1734.467163,4.000386 
	C1727.213257,3.664063 1719.946533,3.495720 1712.709839,2.937844 
	C1708.448853,2.609368 1704.234985,1.666529 1700.000000,1.000003 
	C2132.032715,1.000000 2564.065430,1.000000 2996.463867,1.343751 
	C2992.671875,5.980783 2992.980469,7.295252 2998.611816,9.130646 
	C2999.668213,9.474997 3000.743896,9.857555 3001.837402,9.977962 
	C3015.341553,11.464883 3026.684082,17.501879 3035.687500,27.365694 
	C3044.702393,37.242676 3050.591553,49.134838 3055.002441,61.720814 
	C3064.321045,88.309120 3067.812500,116.111214 3067.694824,143.862930 
	C3067.206787,259.033661 3070.546631,374.229889 3065.916992,489.373352 
	C3065.530762,498.987030 3064.641602,508.682678 3062.818604,518.114685 
	C3059.305908,536.293152 3054.985107,554.299377 3048.040527,571.582764 
	C3041.660400,587.461914 3033.414307,602.240234 3022.218262,615.157043 
	C3010.414062,628.776062 2996.354248,639.625000 2979.643799,646.727051 
	C2966.312988,652.392822 2952.350342,655.853943 2937.949463,656.870728 
	C2928.321045,657.550659 2918.586182,657.389404 2908.934814,656.898315 
	C2897.658203,656.324646 2886.250488,655.878357 2875.202393,653.781189 
	C2854.402588,649.832947 2834.388184,643.299438 2816.138428,632.058411 
	C2801.604736,623.106567 2788.864502,612.093018 2778.417480,598.713318 
	C2764.178955,580.477661 2754.577148,559.767944 2748.004639,537.625977 
	C2739.193115,507.940796 2736.222412,477.349854 2736.188232,446.671844 
	C2736.056641,328.922485 2736.632568,211.172165 2737.037842,93.422531 
	C2737.095459,76.667099 2737.665527,59.913406 2738.003662,43.159023 
	C2738.020264,42.332615 2738.086426,41.507240 2738.128418,40.681313 
	C2738.744873,28.563107 2739.360840,16.444883 2740.019775,3.486099 
	C2727.576172,4.693377 2715.710205,5.961963 2703.822021,6.966873 
	C2690.403076,8.101191 2676.970947,9.115622 2663.531006,9.965205 
	C2650.531006,10.786980 2637.519775,11.725167 2624.502686,11.924747 
	C2588.585693,12.475451 2552.663086,12.963092 2516.742920,12.928315 
	C2466.822998,12.879983 2416.903320,12.388409 2366.984375,11.975013 
	C2344.562256,11.789328 2322.141357,11.387208 2299.721924,10.977058 
	C2288.798096,10.777216 2277.878662,10.329596 2266.957275,10.001302 
	C2255.702637,9.662997 2244.447754,9.335293 2233.193115,8.999491 
	C2222.104980,8.668645 2211.017090,8.333508 2199.928955,8.000198 
	C2188.840820,7.666880 2177.752930,7.335430 2166.664795,6.999586 
	C2155.743408,6.668788 2144.822021,6.325625 2133.900391,6.002358 
	C2122.312744,5.659382 2110.722900,5.016501 2099.136719,5.068141 
	C2077.218750,5.165829 2055.277100,5.168424 2033.400757,6.290886 
	C2026.459717,6.647024 2019.147705,9.442585 2012.959839,12.853353 
	C1998.914185,20.595449 1990.817017,33.781322 1985.110474,48.211258 
	C1973.694336,77.078461 1962.807861,106.152008 1948.692627,133.871735 
	C1947.516357,136.181946 1947.237671,138.949188 1946.541870,141.504074 
	C1947.001465,141.907547 1947.461182,142.311035 1947.920776,142.714508 
	C1949.912964,141.689850 1952.466675,141.136673 1953.795044,139.554596 
	C1958.280029,134.213654 1962.182495,128.387970 1966.576172,122.965210 
	C1976.472656,110.751556 1990.518311,107.876266 2005.012085,107.124290 
	C2021.738892,106.256454 2038.515259,106.368019 2055.268799,105.988541 
	C2067.357910,105.714714 2079.443115,105.187332 2091.533447,105.028419 
	C2123.286133,104.611069 2155.040039,104.288078 2186.794678,104.020470 
	C2201.126465,103.899689 2215.459717,104.000000 2229.792480,104.000000 
	C2231.408691,104.000000 2233.024902,104.000000 2235.000000,104.000000 
	C2235.000000,106.407730 2235.000000,108.368492 2235.000000,110.329247 
	C2235.000000,273.821777 2235.016602,437.314331 2234.956787,600.806885 
	C2234.953369,610.395020 2234.665527,620.008789 2233.919189,629.564514 
	C2232.914062,642.428223 2231.738281,655.305054 2229.901855,668.070679 
	C2227.504883,684.735657 2222.854492,700.826843 2215.000732,715.834778 
	C2208.477051,728.301208 2200.134766,739.326416 2187.004639,745.284546 
	C2180.803223,748.098572 2173.762451,749.018860 2167.198730,751.102234 
	C2164.871826,751.840698 2161.361572,751.722717 2161.937988,756.092651 
	C2162.477539,760.179565 2165.425049,759.019165 2167.619629,758.945312 
	C2184.466064,758.378357 2201.308105,757.100525 2218.150879,757.108337 
	C2265.070557,757.130066 2311.990967,757.612549 2358.909912,758.030884 
	C2374.166016,758.166870 2389.418945,758.677185 2404.673828,758.990784 
	C2407.590820,759.050781 2411.529785,759.734741 2411.783691,755.728455 
	C2412.041992,751.653870 2407.705566,751.947693 2404.927979,751.007812 
	C2404.778320,750.957153 2404.595215,751.016357 2404.430420,750.997559 
	C2391.553467,749.527588 2380.433594,743.966248 2371.573975,734.842468 
	C2361.785889,724.762390 2355.549561,712.370056 2350.896729,699.058350 
	C2341.868896,673.229126 2338.334473,646.337830 2338.255371,619.391907 
	C2337.753174,448.067841 2337.999512,276.741577 2338.010254,105.416031 
	C2338.010254,103.988152 2338.163330,102.560287 2338.195312,101.999893 
	C2357.903564,101.999893 2377.144775,101.875648 2396.383789,102.030022 
	C2422.972168,102.243362 2449.558105,102.836388 2476.146484,102.958588 
	C2512.310791,103.124802 2548.483154,102.592316 2584.638184,103.190140 
	C2600.246826,103.448219 2609.204590,111.252831 2614.972656,124.428467 
	C2620.991699,138.176651 2621.755127,153.008148 2621.813721,167.541092 
	C2622.181641,259.035431 2621.961914,350.532043 2622.044434,442.027802 
	C2622.055908,454.615875 2622.189941,467.238800 2623.120850,479.782227 
	C2624.281250,495.413055 2625.531250,511.116241 2628.203369,526.534973 
	C2631.227295,543.984070 2635.302979,561.307312 2639.960449,578.402039 
	C2645.305420,598.019470 2653.555664,616.558228 2663.659180,634.256104 
	C2672.802246,650.271057 2683.260498,665.367615 2696.199463,678.484192 
	C2704.842773,687.246338 2714.159180,695.435852 2723.781738,703.121277 
	C2742.353271,717.953979 2763.458008,728.498413 2785.544678,736.925720 
	C2821.640137,750.698364 2859.404541,757.044678 2897.753662,758.726074 
	C2925.986816,759.963928 2954.280762,759.874573 2982.289062,753.252319 
	C3009.295410,746.867004 3034.373291,736.550415 3057.666260,721.754517 
	C3078.083984,708.784790 3095.923096,692.844666 3111.407471,674.191040 
	C3122.837646,660.421021 3132.610352,645.605835 3140.985840,629.851807 
	C3149.703125,613.454773 3156.083984,596.150452 3161.409912,578.347595 
	C3168.504883,554.632141 3172.431152,530.322449 3172.756836,505.806702 
	C3173.757812,430.397095 3173.669434,354.972992 3173.995605,279.554474 
	C3174.027344,272.221619 3173.952393,264.888153 3174.007568,257.555573 
	C3174.324951,215.468948 3174.281982,173.374008 3175.213623,131.300766 
	C3175.530273,117.016273 3177.803223,102.701332 3180.112305,88.552094 
	C3183.547607,67.499306 3189.930664,47.529381 3203.745850,30.522089 
	C3212.076660,20.266811 3222.286133,13.585926 3235.212158,10.986590 
	C3238.204590,10.384851 3241.333008,10.031271 3244.088135,8.842596 
	C3245.678711,8.156163 3246.647217,6.027965 3247.895752,4.548756 
	C3246.243408,3.699127 3244.612793,2.803355 3242.930420,2.018238 
	C3241.998047,1.583192 3240.979736,1.333240 3240.000000,0.999958 
	C3428.032715,1.000000 3616.065430,1.000000 3804.449707,1.360134 
	C3803.872803,3.035088 3802.029541,4.536655 3802.250000,5.616899 
	C3802.518799,6.933209 3804.408447,8.081314 3805.814697,8.948874 
	C3806.855957,9.591405 3808.227783,9.845504 3809.482666,9.972798 
	C3825.998291,11.648273 3838.202393,20.505413 3848.000244,33.221802 
	C3856.184814,43.844322 3861.119629,56.055634 3865.040527,68.771629 
	C3873.406006,95.902130 3875.125244,123.976227 3875.805664,151.994843 
	C3876.871826,195.896713 3876.674805,239.829391 3876.997803,283.749146 
	C3877.341309,330.501923 3877.710938,377.254578 3877.979736,424.007812 
	C3878.099365,444.839386 3878.006104,465.672211 3877.983154,486.504456 
	C3877.981934,487.673431 3877.738037,488.842133 3877.522705,490.763641 
	C3876.022461,489.384521 3875.122070,488.681061 3874.368652,487.845154 
	C3865.554932,478.069061 3856.767822,468.268921 3847.965088,458.482910 
	C3838.827637,448.325134 3829.679443,438.176880 3820.538330,428.022430 
	C3808.536133,414.689331 3796.535156,401.355042 3784.535156,388.019989 
	C3775.618896,378.111450 3766.710938,368.195190 3757.787598,358.292999 
	C3745.555908,344.718903 3733.309326,331.158203 3721.076660,317.585266 
	C3708.954834,304.135315 3696.843018,290.676636 3684.725586,277.222900 
	C3672.608154,263.769531 3660.484375,250.321640 3648.371826,236.863693 
	C3636.482178,223.652832 3624.615723,210.420975 3612.715576,197.219254 
	C3600.258545,183.399750 3587.761230,169.616501 3575.305176,155.796082 
	C3563.406006,142.593613 3551.542969,129.358597 3539.652832,116.147743 
	C3527.540527,102.689621 3515.453125,89.208412 3503.282471,75.803345 
	C3492.419922,63.839615 3481.446045,51.977612 3470.548584,40.045616 
	C3466.997070,36.157055 3463.522705,32.197742 3460.030762,28.254934 
	C3452.954102,20.264975 3445.970947,12.188919 3438.724365,4.356419 
	C3437.739258,3.291773 3435.456787,3.036955 3433.783691,3.059349 
	C3416.028076,3.296998 3398.273438,3.987728 3380.520264,3.933431 
	C3343.099609,3.818985 3305.679199,3.393165 3268.260986,2.922755 
	C3263.687500,2.865258 3262.060059,4.282728 3263.547852,9.478104 
	C3268.071289,10.386618 3273.030762,11.045329 3277.793457,12.398216 
	C3297.559570,18.012863 3309.627686,32.027000 3318.013916,49.902821 
	C3324.633301,64.012856 3329.271240,78.713036 3331.054932,94.251335 
	C3332.692139,108.513527 3335.752197,122.769997 3335.784668,137.034439 
	C3336.131348,289.359192 3335.953613,441.685059 3336.045898,594.010559 
	C3336.061035,619.071106 3335.574707,644.018188 3331.104980,668.807556 
	C3327.075684,691.155334 3320.851318,712.624329 3306.546631,730.610901 
	C3298.322998,740.951233 3287.516357,748.244873 3273.773438,750.078308 
	C3270.636719,750.496765 3267.562256,751.699890 3264.599365,752.891418 
	C3263.801758,753.212097 3263.041504,754.863586 3263.135254,755.818848 
	C3263.231445,756.802002 3264.209229,758.116333 3265.129395,758.501099 
	C3266.430420,759.045044 3268.038574,759.030884 3269.504883,758.975159 
	C3286.015869,758.347778 3302.522461,757.180481 3319.035156,757.091858 
	C3367.197998,756.833313 3415.363037,756.999878 3463.527344,757.000732 
	C3464.860596,757.000732 3466.195068,756.971252 3467.526611,757.023254 
	C3484.203369,757.674500 3500.878174,758.390808 3517.559326,758.881958 
	C3518.679443,758.914917 3520.875977,757.138550 3520.785156,756.433289 
	C3520.585205,754.876099 3519.394531,753.338806 3518.304932,752.049500 
	C3517.766357,751.412109 3516.573730,751.273926 3515.645996,751.027161 
	C3503.060547,747.679504 3490.322021,744.820068 3477.914795,740.909729 
	C3459.741943,735.182129 3449.833008,721.783630 3444.929199,703.814026 
	C3438.437012,680.024048 3437.325684,655.556702 3437.247803,631.293945 
	C3436.757812,478.636627 3436.999512,325.977020 3437.009033,173.318146 
	C3437.009277,171.924255 3437.145752,170.530350 3437.303467,167.510208 
	C3439.828369,170.599899 3441.368164,172.562729 3442.989014,174.455826 
	C3457.056396,190.881714 3471.107422,207.321655 3485.224609,223.704620 
	C3498.176758,238.735641 3511.179932,253.723007 3524.206787,268.689545 
	C3535.844238,282.059875 3547.516602,295.400330 3559.225098,308.708710 
	C3571.922363,323.140625 3584.658936,337.538147 3597.416748,351.916534 
	C3608.329102,364.215302 3619.277832,376.481903 3630.242920,388.733795 
	C3641.984863,401.853363 3653.750488,414.951813 3665.531982,428.036346 
	C3677.869629,441.738983 3690.224365,455.426697 3702.597412,469.097198 
	C3712.547607,480.090729 3722.523193,491.061371 3732.513184,502.018433 
	C3743.176514,513.713440 3753.856445,525.393127 3764.553711,537.057007 
	C3775.926025,549.457031 3787.305664,561.850525 3798.721191,574.210754 
	C3811.379639,587.916626 3824.069092,601.593933 3836.770996,615.259949 
	C3846.107910,625.305786 3855.473389,635.325378 3864.848633,645.335449 
	C3875.134766,656.318298 3885.373779,667.346863 3895.767822,678.227051 
	C3906.661865,689.630249 3917.714844,700.881653 3928.700928,712.196960 
	C3929.512939,713.033752 3930.358643,713.838257 3931.163574,714.681641 
	C3945.117920,729.300537 3959.043457,743.947510 3973.073730,758.493042 
	C3974.065674,759.521545 3975.825439,759.809204 3978.088623,760.829102 
	C3978.773926,752.678345 3979.918701,745.387817 3979.922363,738.096741 
	C3980.020508,547.773193 3979.940918,357.449585 3980.063232,167.126053 
	C3980.081543,138.446747 3978.900879,109.743187 3981.869385,81.088959 
	C3983.161865,68.609978 3984.652588,56.287331 3989.016357,44.472836 
	C3992.235107,35.757511 3997.548828,28.203148 4005.837646,24.241800 
	C4015.464600,19.640928 4025.787842,16.413622 4035.974365,13.098804 
	C4042.072510,11.114453 4048.532471,10.262888 4054.715332,8.500784 
	C4055.769531,8.200296 4056.858154,5.836937 4056.776123,4.497436 
	C4056.720947,3.600222 4054.716309,2.617628 4053.418213,2.057970 
	C4052.048096,1.467309 4050.480957,1.333441 4049.000000,1.000001 
	C4248.598145,1.000000 4448.196777,1.000000 4648.000000,1.000000 
	C4648.000000,192.699356 4648.000000,384.398773 4647.661133,576.468262 
	C4643.535156,575.296753 4642.400391,578.858032 4641.211914,580.720154 
	C4637.755371,586.135254 4635.458496,592.324402 4631.775879,597.554626 
	C4619.606445,614.836853 4603.437500,627.789795 4585.102051,637.904846 
	C4561.244141,651.066162 4535.579590,659.111389 4508.483887,661.910278 
	C4487.437500,664.084290 4466.316406,665.722961 4445.187988,666.840515 
	C4434.313965,667.415588 4423.351074,666.390137 4412.431641,665.986816 
	C4395.752930,665.370728 4379.076172,664.710754 4362.401855,663.987183 
	C4348.555664,663.386353 4334.720703,662.456055 4320.869629,662.051880 
	C4302.287598,661.509521 4283.695312,661.333130 4265.107422,661.001099 
	C4264.607422,660.992126 4264.107422,661.007568 4263.607422,660.998901 
	C4256.694824,660.878174 4255.001953,659.151672 4255.001465,652.170105 
	C4254.999023,574.839172 4255.000000,497.508270 4255.000000,420.177368 
	C4255.000000,418.555054 4255.000000,416.932739 4255.000000,415.478027 
	C4258.347656,414.935181 4261.208984,414.216400 4264.102539,414.045715 
	C4277.106445,413.278748 4290.116699,412.594238 4303.130859,412.023376 
	C4313.380859,411.573822 4323.638184,411.229126 4333.895508,411.019226 
	C4368.903809,410.302917 4403.915527,409.759460 4438.920410,408.927612 
	C4446.604980,408.744995 4454.368652,408.207489 4461.916016,406.840332 
	C4473.973145,404.656250 4486.042969,402.208191 4497.810059,398.834747 
	C4512.989746,394.482941 4527.894043,389.012848 4538.323730,376.111206 
	C4549.373535,362.443024 4560.434082,348.764343 4570.908691,334.658417 
	C4576.559570,327.048157 4582.375488,319.213684 4583.803223,309.009003 
	C4581.243164,309.009003 4578.890137,308.758789 4576.606934,309.052673 
	C4567.083496,310.278320 4557.616211,312.045105 4548.064453,312.909424 
	C4533.330078,314.242615 4518.550781,315.130951 4503.777344,315.962799 
	C4488.943359,316.798065 4474.095703,317.419342 4459.248047,317.973145 
	C4446.831543,318.436218 4434.404297,318.993164 4421.984863,318.938934 
	C4384.229980,318.774109 4346.475586,318.388550 4308.722656,317.975006 
	C4291.799316,317.789642 4274.879395,317.337189 4257.958008,316.988586 
	C4257.021973,316.969238 4256.088867,316.790344 4255.110352,316.680786 
	C4255.063965,315.724182 4255.004395,315.072723 4255.004395,314.421265 
	C4255.000000,245.923401 4254.995117,177.425552 4255.007812,108.927689 
	C4255.009277,102.987221 4257.009766,101.087379 4262.992188,100.994621 
	C4283.580078,100.675415 4304.169434,100.017303 4324.756348,100.068497 
	C4363.344238,100.164452 4401.935547,100.427094 4440.516602,101.118294 
	C4455.624512,101.388977 4470.774902,102.431831 4485.784180,104.171753 
	C4498.775879,105.677750 4511.697266,108.221344 4524.458496,111.142258 
	C4534.679688,113.481873 4544.300293,117.761215 4552.736816,124.246170 
	C4564.132324,133.005264 4566.240723,145.955063 4567.903320,158.910812 
	C4568.782227,165.760849 4568.576172,172.745300 4569.090332,179.651962 
	C4569.176270,180.804581 4570.440918,181.869461 4571.160645,182.974915 
	C4572.109375,182.084259 4573.143555,181.265167 4573.974121,180.275757 
	C4574.469727,179.685898 4574.851562,178.852081 4574.937500,178.089005 
	C4576.324707,165.756134 4577.646973,153.415909 4579.003418,141.079453 
	C4580.001953,131.989639 4580.968262,122.895515 4582.062012,113.816971 
	C4583.309082,103.465599 4584.739746,93.136246 4585.978516,82.783943 
	C4586.775391,76.127060 4587.308105,69.438927 4588.071289,62.777576 
	C4589.333008,51.758663 4590.773926,40.759693 4591.972168,29.734163 
	C4592.932129,20.901798 4593.644043,12.042404 4594.527832,2.532952 
	C4585.645996,3.033296 4577.080566,3.606659 4568.505859,3.979579 
	C4551.665527,4.711989 4534.820312,5.335130 4517.977051,5.999041 
	C4509.388672,6.337568 4500.801758,6.703141 4492.211426,6.990569 
	C4481.124512,7.361554 4470.037109,7.718450 4458.946777,7.987542 
	C4443.193359,8.369797 4427.437012,8.993012 4411.683105,8.938435 
	C4365.095215,8.777031 4318.508301,8.381699 4271.921875,7.965731 
	C4260.498047,7.863730 4249.077637,7.346660 4237.656738,6.996200 
	C4227.401367,6.681490 4217.147949,6.304521 4206.892090,6.007606 
	C4194.304199,5.643184 4181.715820,5.335099 4169.127441,4.999555 
	C4156.706055,4.668458 4144.284668,4.304421 4131.862793,4.007609 
	C4116.608398,3.643135 4101.354492,3.283951 4086.097900,3.041276 
	C4083.007080,2.992109 4078.369385,1.771269 4078.257568,6.492537 
	C4078.161865,10.554034 4082.807861,10.084270 4085.784424,11.042986 
	C4092.771729,13.293443 4100.309082,14.705526 4106.514648,18.347134 
	C4122.873535,27.947018 4131.716797,43.578201 4138.057617,60.935585 
	C4148.672852,89.992439 4151.736328,120.393944 4151.767578,150.821274 
	C4151.931641,309.737579 4151.365723,468.654785 4150.916016,627.571289 
	C4150.890625,636.580017 4150.190430,645.664734 4148.869629,654.575500 
	C4146.242676,672.295349 4143.137207,689.984863 4135.964355,706.579651 
	C4125.863281,729.951294 4111.238770,748.075562 4083.673584,751.178833 
	C4081.644287,751.407349 4078.413330,754.018982 4078.323730,755.663635 
	C4078.144531,758.946533 4081.430908,759.144958 4084.229736,759.012817 
	C4098.905273,758.319519 4113.580566,757.619751 4128.259766,757.018616 
	C4138.511230,756.598755 4148.767090,756.254822 4159.024414,756.018005 
	C4176.277832,755.619629 4193.533203,755.334534 4210.788086,754.999573 
	C4227.876465,754.667847 4244.964844,754.055847 4262.052734,754.072937 
	C4281.807129,754.092712 4301.566406,754.507324 4321.314941,755.050720 
	C4335.832520,755.450256 4350.333984,756.393066 4364.847656,756.980042 
	C4375.598145,757.414856 4386.357910,757.625671 4397.110840,758.014709 
	C4404.202148,758.271240 4411.295410,758.561951 4418.370117,759.081116 
	C4419.952148,759.197205 4421.458496,760.333435 4423.000000,761.000000 
	C3374.634033,761.000000 2326.267822,761.000000 1277.617554,760.600403 
	C1284.157959,759.468445 1290.974243,758.645447 1297.808960,758.022583 
	C1311.911255,756.737488 1325.572632,753.551636 1338.449951,747.708435 
	C1344.309448,745.049744 1350.225586,741.727112 1352.506470,734.957153 
	C1355.989502,724.618958 1359.834961,714.350891 1362.453613,703.787048 
	C1365.562500,691.244934 1367.772827,678.461365 1369.928955,665.707458 
	C1371.934204,653.845947 1373.041626,641.830872 1375.112305,629.982605 
	C1377.941162,613.795959 1380.512329,597.524353 1386.353394,582.009644 
	C1386.963867,580.387939 1385.929321,578.146973 1385.657959,576.193298 
	C1383.799316,577.327209 1381.381104,578.056274 1380.203979,579.683289 
	C1378.058472,582.648254 1376.743408,586.199707 1374.909668,589.408081 
	C1372.429199,593.747742 1370.415405,598.580383 1367.082153,602.159180 
	C1360.177612,609.572266 1352.786743,616.587280 1345.138550,623.240295 
	C1332.580200,634.164307 1317.985596,641.843262 1302.604126,647.948242 
	C1282.371582,655.978455 1261.368042,661.064758 1239.669067,662.967285 
	C1222.338135,664.486877 1204.996704,666.144531 1187.623779,666.839111 
	C1175.236450,667.334412 1162.786133,666.419250 1150.369385,665.978760 
	C1134.024292,665.398804 1117.682983,664.706360 1101.343140,663.988525 
	C1087.498291,663.380188 1073.663818,662.493713 1059.814453,662.045288 
	C1043.567261,661.519104 1027.309204,661.325989 1011.055481,661.007263 
	C1008.390076,660.955017 1005.722839,661.001831 1003.056458,660.999695 
	C995.510559,660.993713 993.001404,658.522522 993.001221,651.065918 
	C992.999207,574.074524 993.000000,497.083160 993.000000,420.091766 
	C993.000000,418.478516 993.000000,416.865295 993.000000,415.472900 
	C996.924316,414.932495 1000.294861,414.255157 1003.694824,414.038544 
	C1015.697632,413.273895 1027.705444,412.550201 1039.720947,412.034058 
	C1051.134888,411.543823 1062.558838,411.211792 1073.981812,411.024841 
	C1099.233032,410.611603 1124.494141,410.612885 1149.735718,409.896362 
	C1165.177124,409.458069 1180.697021,408.806335 1195.984497,406.770569 
	C1210.504395,404.836975 1224.878174,401.416595 1239.113892,397.843903 
	C1254.117065,394.078644 1267.534058,387.077423 1278.143921,375.376251 
	C1292.598755,359.434479 1305.302612,342.182678 1316.499756,323.842438 
	C1319.153320,319.496033 1320.750244,314.504486 1323.189209,309.007629 
	C1319.275391,309.007629 1316.928589,308.750732 1314.656006,309.052704 
	C1305.467163,310.273804 1296.338257,312.085693 1287.118286,312.902252 
	C1271.885986,314.251251 1256.606201,315.105255 1241.335327,315.969086 
	C1227.001343,316.779816 1212.656128,317.427063 1198.309326,317.971008 
	C1185.894043,318.441681 1173.467896,318.993164 1161.049072,318.938934 
	C1123.297363,318.774170 1085.546143,318.388489 1047.796021,317.975342 
	C1030.707764,317.788361 1013.622375,317.336609 996.535889,316.992432 
	C995.429016,316.970123 994.324280,316.839813 993.397583,316.772705 
	C993.182434,316.283051 993.064636,316.140137 993.064575,315.997162 
	C993.037781,247.005478 993.007446,178.013809 993.024414,109.022133 
	C993.025635,104.092003 996.059326,101.098862 1000.969177,101.017265 
	C1023.387878,100.644707 1045.808228,100.023170 1068.226929,100.069733 
	C1105.645142,100.147453 1143.062134,100.732193 1180.480347,100.973061 
	C1200.052368,101.099052 1219.440674,102.914146 1238.776245,105.918953 
	C1254.334351,108.336723 1269.548096,111.729019 1283.508057,119.225143 
	C1292.897705,124.267097 1300.727417,131.091797 1302.950073,142.142960 
	C1304.704956,150.869583 1305.810913,159.736450 1306.936157,168.575272 
	C1307.395264,172.181351 1306.893433,175.909836 1307.353882,179.515610 
	C1307.515137,180.778732 1309.249146,181.841049 1310.265137,182.995056 
	C1311.172974,181.851578 1312.696899,180.802094 1312.887939,179.549240 
	C1314.090454,171.669479 1315.068970,163.752823 1315.978882,155.831970 
	C1316.837646,148.358017 1317.399170,140.849014 1318.313232,133.382568 
	C1319.420410,124.338844 1320.886108,115.338623 1321.966064,106.292038 
	C1323.128418,96.553902 1323.974976,86.778526 1325.047974,77.029144 
	C1326.315674,65.512344 1327.646362,54.002193 1329.011230,42.496468 
	C1329.932617,34.729160 1331.077881,26.986881 1331.900269,19.209852 
	C1332.460815,13.909449 1332.636719,8.568364 1333.032227,2.516139 
	C1323.799805,3.035392 1315.244263,3.606761 1306.680176,3.979103 
	C1289.841064,4.711219 1272.997192,5.335040 1256.155151,5.999043 
	C1247.567627,6.337604 1238.981323,6.704975 1230.391968,6.989582 
	C1219.139282,7.362446 1207.885498,7.710909 1196.630127,7.989112 
	C1181.377686,8.366109 1166.122192,8.993005 1150.869995,8.938868 
	C1104.286011,8.773516 1057.702515,8.382092 1011.119934,7.965927 
	C999.530579,7.862389 987.944702,7.346413 976.357910,6.996190 
	C965.936584,6.681195 955.517090,6.305006 945.095337,6.007542 
	C932.342407,5.643540 919.587769,5.338458 906.834167,4.998571 
	C894.580078,4.671994 882.327209,4.295837 870.072205,4.009625 
	C854.153015,3.637837 838.228455,3.446931 822.314453,2.927798 
	C817.798035,2.780468 816.050659,4.182395 817.484314,9.285805 
	C819.820068,9.813414 822.482300,10.301217 825.078552,11.025596 
	C830.021240,12.404641 835.142395,13.424340 839.808716,15.464173 
	C858.077148,23.449993 867.719238,39.083691 874.953979,56.543961 
	C880.855530,70.787125 884.500977,85.651093 886.052002,101.020546 
	C887.298462,113.372017 889.806580,125.707962 889.828369,138.054199 
	C890.092834,288.036987 889.982178,438.020355 890.017761,588.003601 
	C890.023621,612.758301 890.145691,637.468872 886.109863,662.048157 
	C882.820007,682.084351 878.297668,701.590027 868.164429,719.431396 
	C859.906433,733.971069 848.490784,744.708069 832.104309,749.373108 
	C827.927551,750.562195 823.522278,750.950867 819.350708,752.153687 
	C818.310730,752.453613 817.245728,754.459290 817.173218,755.736694 
	C817.118347,756.703369 818.432678,758.136292 819.487549,758.669739 
	C820.570679,759.217468 822.083801,759.039612 823.400085,758.982361 
	C838.076782,758.344116 852.749939,757.622131 867.427979,757.017029 
	C877.512024,756.601379 887.601013,756.290161 897.690002,756.010681 
	C911.275818,755.634277 924.862610,755.268738 938.451172,755.015137 
	C959.369629,754.624756 980.293762,753.915344 1001.208679,754.102966 
	C1029.053101,754.352600 1056.894287,755.222717 1084.730225,756.050232 
	C1097.081543,756.417419 1109.411743,757.443176 1121.760132,757.967590 
	C1133.174438,758.452271 1144.603271,758.591064 1156.017090,759.082581 
	C1157.702393,759.155151 1159.340210,760.333374 1161.000000,761.000000 
z"/>
<path fill="#1D1D1B" opacity="1.000000" stroke="none" 
	d="
M3239.532227,0.999958 
	C3240.979736,1.333240 3241.998047,1.583192 3242.930420,2.018238 
	C3244.612793,2.803355 3246.243408,3.699127 3247.895752,4.548756 
	C3246.647217,6.027965 3245.678711,8.156163 3244.088135,8.842596 
	C3241.333008,10.031271 3238.204590,10.384851 3235.212158,10.986590 
	C3222.286133,13.585926 3212.076660,20.266811 3203.745850,30.522089 
	C3189.930664,47.529381 3183.547607,67.499306 3180.112305,88.552094 
	C3177.803223,102.701332 3175.530273,117.016273 3175.213623,131.300766 
	C3174.281982,173.374008 3174.324951,215.468948 3174.007568,257.555573 
	C3173.952393,264.888153 3174.027344,272.221619 3173.995605,279.554474 
	C3173.669434,354.972992 3173.757812,430.397095 3172.756836,505.806702 
	C3172.431152,530.322449 3168.504883,554.632141 3161.409912,578.347595 
	C3156.083984,596.150452 3149.703125,613.454773 3140.985840,629.851807 
	C3132.610352,645.605835 3122.837646,660.421021 3111.407471,674.191040 
	C3095.923096,692.844666 3078.083984,708.784790 3057.666260,721.754517 
	C3034.373291,736.550415 3009.295410,746.867004 2982.289062,753.252319 
	C2954.280762,759.874573 2925.986816,759.963928 2897.753662,758.726074 
	C2859.404541,757.044678 2821.640137,750.698364 2785.544678,736.925720 
	C2763.458008,728.498413 2742.353271,717.953979 2723.781738,703.121277 
	C2714.159180,695.435852 2704.842773,687.246338 2696.199463,678.484192 
	C2683.260498,665.367615 2672.802246,650.271057 2663.659180,634.256104 
	C2653.555664,616.558228 2645.305420,598.019470 2639.960449,578.402039 
	C2635.302979,561.307312 2631.227295,543.984070 2628.203369,526.534973 
	C2625.531250,511.116241 2624.281250,495.413055 2623.120850,479.782227 
	C2622.189941,467.238800 2622.055908,454.615875 2622.044434,442.027802 
	C2621.961914,350.532043 2622.181641,259.035431 2621.813721,167.541092 
	C2621.755127,153.008148 2620.991699,138.176651 2614.972656,124.428467 
	C2609.204590,111.252831 2600.246826,103.448219 2584.638184,103.190140 
	C2548.483154,102.592316 2512.310791,103.124802 2476.146484,102.958588 
	C2449.558105,102.836388 2422.972168,102.243362 2396.383789,102.030022 
	C2377.144775,101.875648 2357.903564,101.999893 2338.195312,101.999893 
	C2338.163330,102.560287 2338.010254,103.988152 2338.010254,105.416031 
	C2337.999512,276.741577 2337.753174,448.067841 2338.255371,619.391907 
	C2338.334473,646.337830 2341.868896,673.229126 2350.896729,699.058350 
	C2355.549561,712.370056 2361.785889,724.762390 2371.573975,734.842468 
	C2380.433594,743.966248 2391.553467,749.527588 2404.430420,750.997559 
	C2404.595215,751.016357 2404.778320,750.957153 2404.927979,751.007812 
	C2407.705566,751.947693 2412.041992,751.653870 2411.783691,755.728455 
	C2411.529785,759.734741 2407.590820,759.050781 2404.673828,758.990784 
	C2389.418945,758.677185 2374.166016,758.166870 2358.909912,758.030884 
	C2311.990967,757.612549 2265.070557,757.130066 2218.150879,757.108337 
	C2201.308105,757.100525 2184.466064,758.378357 2167.619629,758.945312 
	C2165.425049,759.019165 2162.477539,760.179565 2161.937988,756.092651 
	C2161.361572,751.722717 2164.871826,751.840698 2167.198730,751.102234 
	C2173.762451,749.018860 2180.803223,748.098572 2187.004639,745.284546 
	C2200.134766,739.326416 2208.477051,728.301208 2215.000732,715.834778 
	C2222.854492,700.826843 2227.504883,684.735657 2229.901855,668.070679 
	C2231.738281,655.305054 2232.914062,642.428223 2233.919189,629.564514 
	C2234.665527,620.008789 2234.953369,610.395020 2234.956787,600.806885 
	C2235.016602,437.314331 2235.000000,273.821777 2235.000000,110.329247 
	C2235.000000,108.368492 2235.000000,106.407730 2235.000000,104.000000 
	C2233.024902,104.000000 2231.408691,104.000000 2229.792480,104.000000 
	C2215.459717,104.000000 2201.126465,103.899689 2186.794678,104.020470 
	C2155.040039,104.288078 2123.286133,104.611069 2091.533447,105.028419 
	C2079.443115,105.187332 2067.357910,105.714714 2055.268799,105.988541 
	C2038.515259,106.368019 2021.738892,106.256454 2005.012085,107.124290 
	C1990.518311,107.876266 1976.472656,110.751556 1966.576172,122.965210 
	C1962.182495,128.387970 1958.280029,134.213654 1953.795044,139.554596 
	C1952.466675,141.136673 1949.912964,141.689850 1947.920776,142.714508 
	C1947.461182,142.311035 1947.001465,141.907547 1946.541870,141.504074 
	C1947.237671,138.949188 1947.516357,136.181946 1948.692627,133.871735 
	C1962.807861,106.152008 1973.694336,77.078461 1985.110474,48.211258 
	C1990.817017,33.781322 1998.914185,20.595449 2012.959839,12.853353 
	C2019.147705,9.442585 2026.459717,6.647024 2033.400757,6.290886 
	C2055.277100,5.168424 2077.218750,5.165829 2099.136719,5.068141 
	C2110.722900,5.016501 2122.312744,5.659382 2133.900391,6.002358 
	C2144.822021,6.325625 2155.743408,6.668788 2166.664795,6.999586 
	C2177.752930,7.335430 2188.840820,7.666880 2199.928955,8.000198 
	C2211.017090,8.333508 2222.104980,8.668645 2233.193115,8.999491 
	C2244.447754,9.335293 2255.702637,9.662997 2266.957275,10.001302 
	C2277.878662,10.329596 2288.798096,10.777216 2299.721924,10.977058 
	C2322.141357,11.387208 2344.562256,11.789328 2366.984375,11.975013 
	C2416.903320,12.388409 2466.822998,12.879983 2516.742920,12.928315 
	C2552.663086,12.963092 2588.585693,12.475451 2624.502686,11.924747 
	C2637.519775,11.725167 2650.531006,10.786980 2663.531006,9.965205 
	C2676.970947,9.115622 2690.403076,8.101191 2703.822021,6.966873 
	C2715.710205,5.961963 2727.576172,4.693377 2740.019775,3.486099 
	C2739.360840,16.444883 2738.744873,28.563107 2738.128418,40.681313 
	C2738.086426,41.507240 2738.020264,42.332615 2738.003662,43.159023 
	C2737.665527,59.913406 2737.095459,76.667099 2737.037842,93.422531 
	C2736.632568,211.172165 2736.056641,328.922485 2736.188232,446.671844 
	C2736.222412,477.349854 2739.193115,507.940796 2748.004639,537.625977 
	C2754.577148,559.767944 2764.178955,580.477661 2778.417480,598.713318 
	C2788.864502,612.093018 2801.604736,623.106567 2816.138428,632.058411 
	C2834.388184,643.299438 2854.402588,649.832947 2875.202393,653.781189 
	C2886.250488,655.878357 2897.658203,656.324646 2908.934814,656.898315 
	C2918.586182,657.389404 2928.321045,657.550659 2937.949463,656.870728 
	C2952.350342,655.853943 2966.312988,652.392822 2979.643799,646.727051 
	C2996.354248,639.625000 3010.414062,628.776062 3022.218262,615.157043 
	C3033.414307,602.240234 3041.660400,587.461914 3048.040527,571.582764 
	C3054.985107,554.299377 3059.305908,536.293152 3062.818604,518.114685 
	C3064.641602,508.682678 3065.530762,498.987030 3065.916992,489.373352 
	C3070.546631,374.229889 3067.206787,259.033661 3067.694824,143.862930 
	C3067.812500,116.111214 3064.321045,88.309120 3055.002441,61.720814 
	C3050.591553,49.134838 3044.702393,37.242676 3035.687500,27.365694 
	C3026.684082,17.501879 3015.341553,11.464883 3001.837402,9.977962 
	C3000.743896,9.857555 2999.668213,9.474997 2998.611816,9.130646 
	C2992.980469,7.295252 2992.671875,5.980783 2996.915039,1.343751 
	C3001.689209,1.000000 3006.378662,1.000000 3011.706299,1.403555 
	C3017.918701,2.204671 3023.487549,2.833446 3029.067627,2.958072 
	C3048.791748,3.398604 3068.518311,3.798290 3088.246338,3.963186 
	C3108.216064,4.130100 3128.188965,4.129759 3148.158691,3.964850 
	C3169.717041,3.786820 3191.275146,3.413145 3212.828369,2.917494 
	C3216.231934,2.839228 3219.610107,1.666636 3223.000000,1.000007 
	C3228.354980,1.000000 3233.709717,1.000000 3239.532227,0.999958 
z"/>
<path fill="#1D1D1B" opacity="1.000000" stroke="none" 
	d="
M4048.531982,1.000001 
	C4050.480957,1.333441 4052.048096,1.467309 4053.418213,2.057970 
	C4054.716309,2.617628 4056.720947,3.600222 4056.776123,4.497436 
	C4056.858154,5.836937 4055.769531,8.200296 4054.715332,8.500784 
	C4048.532471,10.262888 4042.072510,11.114453 4035.974365,13.098804 
	C4025.787842,16.413622 4015.464600,19.640928 4005.837646,24.241800 
	C3997.548828,28.203148 3992.235107,35.757511 3989.016357,44.472836 
	C3984.652588,56.287331 3983.161865,68.609978 3981.869385,81.088959 
	C3978.900879,109.743187 3980.081543,138.446747 3980.063232,167.126053 
	C3979.940918,357.449585 3980.020508,547.773193 3979.922363,738.096741 
	C3979.918701,745.387817 3978.773926,752.678345 3978.088623,760.829102 
	C3975.825439,759.809204 3974.065674,759.521545 3973.073730,758.493042 
	C3959.043457,743.947510 3945.117920,729.300537 3931.163574,714.681641 
	C3930.358643,713.838257 3929.512939,713.033752 3928.700928,712.196960 
	C3917.714844,700.881653 3906.661865,689.630249 3895.767822,678.227051 
	C3885.373779,667.346863 3875.134766,656.318298 3864.848633,645.335449 
	C3855.473389,635.325378 3846.107910,625.305786 3836.770996,615.259949 
	C3824.069092,601.593933 3811.379639,587.916626 3798.721191,574.210754 
	C3787.305664,561.850525 3775.926025,549.457031 3764.553711,537.057007 
	C3753.856445,525.393127 3743.176514,513.713440 3732.513184,502.018433 
	C3722.523193,491.061371 3712.547607,480.090729 3702.597412,469.097198 
	C3690.224365,455.426697 3677.869629,441.738983 3665.531982,428.036346 
	C3653.750488,414.951813 3641.984863,401.853363 3630.242920,388.733795 
	C3619.277832,376.481903 3608.329102,364.215302 3597.416748,351.916534 
	C3584.658936,337.538147 3571.922363,323.140625 3559.225098,308.708710 
	C3547.516602,295.400330 3535.844238,282.059875 3524.206787,268.689545 
	C3511.179932,253.723007 3498.176758,238.735641 3485.224609,223.704620 
	C3471.107422,207.321655 3457.056396,190.881714 3442.989014,174.455826 
	C3441.368164,172.562729 3439.828369,170.599899 3437.303467,167.510208 
	C3437.145752,170.530350 3437.009277,171.924255 3437.009033,173.318146 
	C3436.999512,325.977020 3436.757812,478.636627 3437.247803,631.293945 
	C3437.325684,655.556702 3438.437012,680.024048 3444.929199,703.814026 
	C3449.833008,721.783630 3459.741943,735.182129 3477.914795,740.909729 
	C3490.322021,744.820068 3503.060547,747.679504 3515.645996,751.027161 
	C3516.573730,751.273926 3517.766357,751.412109 3518.304932,752.049500 
	C3519.394531,753.338806 3520.585205,754.876099 3520.785156,756.433289 
	C3520.875977,757.138550 3518.679443,758.914917 3517.559326,758.881958 
	C3500.878174,758.390808 3484.203369,757.674500 3467.526611,757.023254 
	C3466.195068,756.971252 3464.860596,757.000732 3463.527344,757.000732 
	C3415.363037,756.999878 3367.197998,756.833313 3319.035156,757.091858 
	C3302.522461,757.180481 3286.015869,758.347778 3269.504883,758.975159 
	C3268.038574,759.030884 3266.430420,759.045044 3265.129395,758.501099 
	C3264.209229,758.116333 3263.231445,756.802002 3263.135254,755.818848 
	C3263.041504,754.863586 3263.801758,753.212097 3264.599365,752.891418 
	C3267.562256,751.699890 3270.636719,750.496765 3273.773438,750.078308 
	C3287.516357,748.244873 3298.322998,740.951233 3306.546631,730.610901 
	C3320.851318,712.624329 3327.075684,691.155334 3331.104980,668.807556 
	C3335.574707,644.018188 3336.061035,619.071106 3336.045898,594.010559 
	C3335.953613,441.685059 3336.131348,289.359192 3335.784668,137.034439 
	C3335.752197,122.769997 3332.692139,108.513527 3331.054932,94.251335 
	C3329.271240,78.713036 3324.633301,64.012856 3318.013916,49.902821 
	C3309.627686,32.027000 3297.559570,18.012863 3277.793457,12.398216 
	C3273.030762,11.045329 3268.071289,10.386618 3263.547852,9.478104 
	C3262.060059,4.282728 3263.687500,2.865258 3268.260986,2.922755 
	C3305.679199,3.393165 3343.099609,3.818985 3380.520264,3.933431 
	C3398.273438,3.987728 3416.028076,3.296998 3433.783691,3.059349 
	C3435.456787,3.036955 3437.739258,3.291773 3438.724365,4.356419 
	C3445.970947,12.188919 3452.954102,20.264975 3460.030762,28.254934 
	C3463.522705,32.197742 3466.997070,36.157055 3470.548584,40.045616 
	C3481.446045,51.977612 3492.419922,63.839615 3503.282471,75.803345 
	C3515.453125,89.208412 3527.540527,102.689621 3539.652832,116.147743 
	C3551.542969,129.358597 3563.406006,142.593613 3575.305176,155.796082 
	C3587.761230,169.616501 3600.258545,183.399750 3612.715576,197.219254 
	C3624.615723,210.420975 3636.482178,223.652832 3648.371826,236.863693 
	C3660.484375,250.321640 3672.608154,263.769531 3684.725586,277.222900 
	C3696.843018,290.676636 3708.954834,304.135315 3721.076660,317.585266 
	C3733.309326,331.158203 3745.555908,344.718903 3757.787598,358.292999 
	C3766.710938,368.195190 3775.618896,378.111450 3784.535156,388.019989 
	C3796.535156,401.355042 3808.536133,414.689331 3820.538330,428.022430 
	C3829.679443,438.176880 3838.827637,448.325134 3847.965088,458.482910 
	C3856.767822,468.268921 3865.554932,478.069061 3874.368652,487.845154 
	C3875.122070,488.681061 3876.022461,489.384521 3877.522705,490.763641 
	C3877.738037,488.842133 3877.981934,487.673431 3877.983154,486.504456 
	C3878.006104,465.672211 3878.099365,444.839386 3877.979736,424.007812 
	C3877.710938,377.254578 3877.341309,330.501923 3876.997803,283.749146 
	C3876.674805,239.829391 3876.871826,195.896713 3875.805664,151.994843 
	C3875.125244,123.976227 3873.406006,95.902130 3865.040527,68.771629 
	C3861.119629,56.055634 3856.184814,43.844322 3848.000244,33.221802 
	C3838.202393,20.505413 3825.998291,11.648273 3809.482666,9.972798 
	C3808.227783,9.845504 3806.855957,9.591405 3805.814697,8.948874 
	C3804.408447,8.081314 3802.518799,6.933209 3802.250000,5.616899 
	C3802.029541,4.536655 3803.872803,3.035088 3804.900635,1.360134 
	C3809.689209,1.000000 3814.378662,1.000000 3819.706299,1.403558 
	C3837.160400,2.538080 3853.970215,3.482584 3870.793457,3.931041 
	C3883.767578,4.276888 3896.758789,4.083884 3909.741455,3.984125 
	C3947.281738,3.695666 3984.822266,3.375486 4022.360840,2.916955 
	C4025.247803,2.881691 4028.120605,1.666687 4031.000000,1.000015 
	C4036.687988,1.000000 4042.375977,1.000000 4048.531982,1.000001 
z"/>
<path fill="#1D1D1B" opacity="1.000000" stroke="none" 
	d="
M787.531494,0.999999 
	C789.314270,1.333374 790.702881,1.499989 791.923523,2.043530 
	C793.356445,2.681571 794.643494,3.647091 795.993835,4.470564 
	C794.966675,5.972447 794.218750,8.399491 792.861877,8.809052 
	C788.098267,10.246921 783.009155,10.613230 778.255310,12.075001 
	C767.827209,15.281559 757.283203,18.321386 747.239014,22.513363 
	C734.553711,27.807558 728.037720,38.959106 725.236816,51.617275 
	C722.506165,63.957664 720.869690,76.672882 720.173340,89.301865 
	C718.897217,112.444138 718.106140,135.643616 718.088013,158.820023 
	C717.934021,355.644989 718.003174,552.470154 717.960083,749.295288 
	C717.959595,751.531433 717.526733,753.810242 716.975769,755.988220 
	C716.620789,757.391663 715.680237,758.646973 715.002075,759.968628 
	C713.660278,759.144714 712.084595,758.551147 711.011719,757.462219 
	C694.914368,741.123474 678.804565,724.795288 662.862183,708.305725 
	C650.782349,695.811218 638.916626,683.109131 626.991211,670.465881 
	C616.894836,659.761780 606.827881,649.029724 596.786804,638.273682 
	C583.373230,623.904968 569.975952,609.520996 556.611572,595.106567 
	C544.605896,582.157532 532.639526,569.171875 520.682800,556.177490 
	C509.628143,544.163452 498.596527,532.128113 487.578644,520.080383 
	C477.234833,508.769653 466.909698,497.441742 456.599091,486.100739 
	C443.523438,471.718475 430.442688,457.340729 417.416656,442.913635 
	C405.728851,429.968719 394.105682,416.965393 382.465881,403.977203 
	C371.048004,391.236664 359.620178,378.504944 348.242859,365.728241 
	C337.971985,354.194031 327.753479,342.613098 317.530121,331.036652 
	C305.025787,316.877319 292.510620,302.727417 280.055847,288.524597 
	C268.807220,275.697205 257.604675,262.829163 246.434204,249.933655 
	C231.621811,232.833817 216.810287,215.732727 202.096161,198.548477 
	C193.534195,188.549164 185.163437,178.386108 176.000000,167.453659 
	C176.000000,170.033585 176.000000,171.606964 176.000000,173.180328 
	C176.000000,329.673798 175.810104,486.167786 176.224564,642.660156 
	C176.280487,663.781311 178.078186,685.033997 183.962250,705.649841 
	C189.493622,725.030090 201.872437,737.479736 221.108170,742.901428 
	C232.103333,746.000549 243.322235,748.302185 254.420029,751.045410 
	C255.792923,751.384766 257.320251,751.958923 258.265198,752.924316 
	C259.178955,753.857849 260.050415,755.582642 259.789856,756.688965 
	C259.563202,757.651367 257.722656,758.894104 256.607849,758.881714 
	C248.176712,758.787720 239.748672,758.415527 231.319778,758.127441 
	C230.326981,758.093567 229.335022,758.013855 228.342194,758.004150 
	C193.921783,757.665833 159.501801,757.254700 125.080620,757.027954 
	C102.582535,756.879761 80.078964,756.749146 57.584839,757.082275 
	C40.735569,757.331909 23.899214,758.390930 7.051652,758.913757 
	C5.306935,758.967896 3.525031,757.823853 1.380190,757.117920 
	C1.000000,755.933289 1.000000,754.866638 1.399364,753.395264 
	C4.265071,752.325989 6.694176,751.406799 9.204021,751.039734 
	C21.802952,749.197144 32.743092,743.748108 41.530243,734.777466 
	C51.275875,724.828308 57.398537,712.444580 61.955734,699.402954 
	C71.236893,672.842407 74.693642,645.102844 74.778389,617.298401 
	C75.243073,464.844971 75.014610,312.389404 74.957527,159.934570 
	C74.954628,152.181580 74.646042,144.400192 73.936554,136.681961 
	C72.486877,120.911484 71.289566,105.077347 68.837051,89.450096 
	C65.977486,71.229149 60.431568,53.760078 50.038502,38.154781 
	C40.764626,24.229961 29.078623,14.078671 11.728585,11.795945 
	C8.049599,11.311904 4.570951,9.305174 1.000000,8.000000 
	C1.000000,6.933331 1.000000,5.866662 1.403713,4.261243 
	C3.386726,3.481663 4.971989,3.000044 6.544364,3.038970 
	C16.967651,3.297011 27.389889,3.993141 37.809277,3.938451 
	C68.397331,3.777896 98.983475,3.285326 129.571213,3.021239 
	C143.902802,2.897503 158.236923,2.941766 172.568207,3.082089 
	C174.158157,3.097657 176.184219,3.819118 177.250168,4.936310 
	C185.680130,13.771517 194.027054,22.691217 202.206177,31.759306 
	C216.083191,47.144577 229.781326,62.691067 243.628845,78.103127 
	C251.014023,86.322708 258.611267,94.351517 266.012970,102.556503 
	C280.559723,118.682060 295.026367,134.879883 309.547394,151.028687 
	C316.045715,158.255463 322.617889,165.415863 329.117157,172.641785 
	C343.751740,188.912659 358.346130,205.219711 372.988770,221.483337 
	C379.714050,228.953140 386.568878,236.306656 393.269287,243.798492 
	C406.748871,258.870270 420.120911,274.038300 433.620514,289.092041 
	C440.997772,297.318573 448.628632,305.317810 455.997192,313.551971 
	C469.037079,328.123657 481.935852,342.821442 494.947906,357.418213 
	C503.928741,367.492798 512.995239,377.491089 522.033325,387.514526 
	C534.381165,401.208527 546.704590,414.924713 559.101685,428.574036 
	C569.966309,440.536041 580.958557,452.382141 591.809387,464.356567 
	C595.653137,468.598450 599.157410,473.147064 602.977478,477.411652 
	C607.051941,481.960327 611.316406,486.338715 615.000061,490.261230 
	C615.000061,438.420746 615.130127,386.502045 614.964050,334.584351 
	C614.792664,280.997772 614.383972,227.411728 613.966675,173.826340 
	C613.853027,159.236923 613.737488,144.626755 612.875671,130.070328 
	C612.152893,117.861481 610.566467,105.687355 608.960205,93.551086 
	C606.615479,75.833977 601.580200,58.901352 593.010193,43.124874 
	C584.796021,28.003525 573.474121,16.478567 556.351318,11.801567 
	C552.017883,10.617910 547.538025,9.920121 543.291992,8.500809 
	C542.205200,8.137530 541.141907,5.837025 541.224304,4.497622 
	C541.279480,3.600269 543.283691,2.617645 544.581665,2.058001 
	C545.951782,1.467255 547.518921,1.333434 549.000000,0.999998 
	C551.041687,1.000000 553.083313,1.000000 555.735779,1.404242 
	C573.662292,2.538989 590.973694,3.410187 608.295471,3.945287 
	C618.106995,4.248384 627.936096,4.062866 637.756470,3.989035 
	C678.626892,3.681764 719.497375,3.363681 760.366394,2.917036 
	C762.584290,2.892797 764.789124,1.666664 767.000000,1.000002 
	C773.687622,1.000000 780.375305,1.000000 787.531494,0.999999 
z"/>
<path fill="#1D1D1B" opacity="1.000000" stroke="none" 
	d="
M1161.468628,761.000000 
	C1159.340210,760.333374 1157.702393,759.155151 1156.017090,759.082581 
	C1144.603271,758.591064 1133.174438,758.452271 1121.760132,757.967590 
	C1109.411743,757.443176 1097.081543,756.417419 1084.730225,756.050232 
	C1056.894287,755.222717 1029.053101,754.352600 1001.208679,754.102966 
	C980.293762,753.915344 959.369629,754.624756 938.451172,755.015137 
	C924.862610,755.268738 911.275818,755.634277 897.690002,756.010681 
	C887.601013,756.290161 877.512024,756.601379 867.427979,757.017029 
	C852.749939,757.622131 838.076782,758.344116 823.400085,758.982361 
	C822.083801,759.039612 820.570679,759.217468 819.487549,758.669739 
	C818.432678,758.136292 817.118347,756.703369 817.173218,755.736694 
	C817.245728,754.459290 818.310730,752.453613 819.350708,752.153687 
	C823.522278,750.950867 827.927551,750.562195 832.104309,749.373108 
	C848.490784,744.708069 859.906433,733.971069 868.164429,719.431396 
	C878.297668,701.590027 882.820007,682.084351 886.109863,662.048157 
	C890.145691,637.468872 890.023621,612.758301 890.017761,588.003601 
	C889.982178,438.020355 890.092834,288.036987 889.828369,138.054199 
	C889.806580,125.707962 887.298462,113.372017 886.052002,101.020546 
	C884.500977,85.651093 880.855530,70.787125 874.953979,56.543961 
	C867.719238,39.083691 858.077148,23.449993 839.808716,15.464173 
	C835.142395,13.424340 830.021240,12.404641 825.078552,11.025596 
	C822.482300,10.301217 819.820068,9.813414 817.484314,9.285805 
	C816.050659,4.182395 817.798035,2.780468 822.314453,2.927798 
	C838.228455,3.446931 854.153015,3.637837 870.072205,4.009625 
	C882.327209,4.295837 894.580078,4.671994 906.834167,4.998571 
	C919.587769,5.338458 932.342407,5.643540 945.095337,6.007542 
	C955.517090,6.305006 965.936584,6.681195 976.357910,6.996190 
	C987.944702,7.346413 999.530579,7.862389 1011.119934,7.965927 
	C1057.702515,8.382092 1104.286011,8.773516 1150.869995,8.938868 
	C1166.122192,8.993005 1181.377686,8.366109 1196.630127,7.989112 
	C1207.885498,7.710909 1219.139282,7.362446 1230.391968,6.989582 
	C1238.981323,6.704975 1247.567627,6.337604 1256.155151,5.999043 
	C1272.997192,5.335040 1289.841064,4.711219 1306.680176,3.979103 
	C1315.244263,3.606761 1323.799805,3.035392 1333.032227,2.516139 
	C1332.636719,8.568364 1332.460815,13.909449 1331.900269,19.209852 
	C1331.077881,26.986881 1329.932617,34.729160 1329.011230,42.496468 
	C1327.646362,54.002193 1326.315674,65.512344 1325.047974,77.029144 
	C1323.974976,86.778526 1323.128418,96.553902 1321.966064,106.292038 
	C1320.886108,115.338623 1319.420410,124.338844 1318.313232,133.382568 
	C1317.399170,140.849014 1316.837646,148.358017 1315.978882,155.831970 
	C1315.068970,163.752823 1314.090454,171.669479 1312.887939,179.549240 
	C1312.696899,180.802094 1311.172974,181.851578 1310.265137,182.995056 
	C1309.249146,181.841049 1307.515137,180.778732 1307.353882,179.515610 
	C1306.893433,175.909836 1307.395264,172.181351 1306.936157,168.575272 
	C1305.810913,159.736450 1304.704956,150.869583 1302.950073,142.142960 
	C1300.727417,131.091797 1292.897705,124.267097 1283.508057,119.225143 
	C1269.548096,111.729019 1254.334351,108.336723 1238.776245,105.918953 
	C1219.440674,102.914146 1200.052368,101.099052 1180.480347,100.973061 
	C1143.062134,100.732193 1105.645142,100.147453 1068.226929,100.069733 
	C1045.808228,100.023170 1023.387878,100.644707 1000.969177,101.017265 
	C996.059326,101.098862 993.025635,104.092003 993.024414,109.022133 
	C993.007446,178.013809 993.037781,247.005478 993.064575,315.997162 
	C993.064636,316.140137 993.182434,316.283051 993.397583,316.772705 
	C994.324280,316.839813 995.429016,316.970123 996.535889,316.992432 
	C1013.622375,317.336609 1030.707764,317.788361 1047.796021,317.975342 
	C1085.546143,318.388489 1123.297363,318.774170 1161.049072,318.938934 
	C1173.467896,318.993164 1185.894043,318.441681 1198.309326,317.971008 
	C1212.656128,317.427063 1227.001343,316.779816 1241.335327,315.969086 
	C1256.606201,315.105255 1271.885986,314.251251 1287.118286,312.902252 
	C1296.338257,312.085693 1305.467163,310.273804 1314.656006,309.052704 
	C1316.928589,308.750732 1319.275391,309.007629 1323.189209,309.007629 
	C1320.750244,314.504486 1319.153320,319.496033 1316.499756,323.842438 
	C1305.302612,342.182678 1292.598755,359.434479 1278.143921,375.376251 
	C1267.534058,387.077423 1254.117065,394.078644 1239.113892,397.843903 
	C1224.878174,401.416595 1210.504395,404.836975 1195.984497,406.770569 
	C1180.697021,408.806335 1165.177124,409.458069 1149.735718,409.896362 
	C1124.494141,410.612885 1099.233032,410.611603 1073.981812,411.024841 
	C1062.558838,411.211792 1051.134888,411.543823 1039.720947,412.034058 
	C1027.705444,412.550201 1015.697632,413.273895 1003.694824,414.038544 
	C1000.294861,414.255157 996.924316,414.932495 993.000000,415.472900 
	C993.000000,416.865295 993.000000,418.478516 993.000000,420.091766 
	C993.000000,497.083160 992.999207,574.074524 993.001221,651.065918 
	C993.001404,658.522522 995.510559,660.993713 1003.056458,660.999695 
	C1005.722839,661.001831 1008.390076,660.955017 1011.055481,661.007263 
	C1027.309204,661.325989 1043.567261,661.519104 1059.814453,662.045288 
	C1073.663818,662.493713 1087.498291,663.380188 1101.343140,663.988525 
	C1117.682983,664.706360 1134.024292,665.398804 1150.369385,665.978760 
	C1162.786133,666.419250 1175.236450,667.334412 1187.623779,666.839111 
	C1204.996704,666.144531 1222.338135,664.486877 1239.669067,662.967285 
	C1261.368042,661.064758 1282.371582,655.978455 1302.604126,647.948242 
	C1317.985596,641.843262 1332.580200,634.164307 1345.138550,623.240295 
	C1352.786743,616.587280 1360.177612,609.572266 1367.082153,602.159180 
	C1370.415405,598.580383 1372.429199,593.747742 1374.909668,589.408081 
	C1376.743408,586.199707 1378.058472,582.648254 1380.203979,579.683289 
	C1381.381104,578.056274 1383.799316,577.327209 1385.657959,576.193298 
	C1385.929321,578.146973 1386.963867,580.387939 1386.353394,582.009644 
	C1380.512329,597.524353 1377.941162,613.795959 1375.112305,629.982605 
	C1373.041626,641.830872 1371.934204,653.845947 1369.928955,665.707458 
	C1367.772827,678.461365 1365.562500,691.244934 1362.453613,703.787048 
	C1359.834961,714.350891 1355.989502,724.618958 1352.506470,734.957153 
	C1350.225586,741.727112 1344.309448,745.049744 1338.449951,747.708435 
	C1325.572632,753.551636 1311.911255,756.737488 1297.808960,758.022583 
	C1290.974243,758.645447 1284.157959,759.468445 1277.166626,760.600403 
	C1238.645752,761.000000 1200.291504,761.000000 1161.468628,761.000000 
z"/>
<path fill="#1D1D1B" opacity="1.000000" stroke="none" 
	d="
M4423.468750,761.000000 
	C4421.458496,760.333435 4419.952148,759.197205 4418.370117,759.081116 
	C4411.295410,758.561951 4404.202148,758.271240 4397.110840,758.014709 
	C4386.357910,757.625671 4375.598145,757.414856 4364.847656,756.980042 
	C4350.333984,756.393066 4335.832520,755.450256 4321.314941,755.050720 
	C4301.566406,754.507324 4281.807129,754.092712 4262.052734,754.072937 
	C4244.964844,754.055847 4227.876465,754.667847 4210.788086,754.999573 
	C4193.533203,755.334534 4176.277832,755.619629 4159.024414,756.018005 
	C4148.767090,756.254822 4138.511230,756.598755 4128.259766,757.018616 
	C4113.580566,757.619751 4098.905273,758.319519 4084.229736,759.012817 
	C4081.430908,759.144958 4078.144531,758.946533 4078.323730,755.663635 
	C4078.413330,754.018982 4081.644287,751.407349 4083.673584,751.178833 
	C4111.238770,748.075562 4125.863281,729.951294 4135.964355,706.579651 
	C4143.137207,689.984863 4146.242676,672.295349 4148.869629,654.575500 
	C4150.190430,645.664734 4150.890625,636.580017 4150.916016,627.571289 
	C4151.365723,468.654785 4151.931641,309.737579 4151.767578,150.821274 
	C4151.736328,120.393944 4148.672852,89.992439 4138.057617,60.935585 
	C4131.716797,43.578201 4122.873535,27.947018 4106.514648,18.347134 
	C4100.309082,14.705526 4092.771729,13.293443 4085.784424,11.042986 
	C4082.807861,10.084270 4078.161865,10.554034 4078.257568,6.492537 
	C4078.369385,1.771269 4083.007080,2.992109 4086.097900,3.041276 
	C4101.354492,3.283951 4116.608398,3.643135 4131.862793,4.007609 
	C4144.284668,4.304421 4156.706055,4.668458 4169.127441,4.999555 
	C4181.715820,5.335099 4194.304199,5.643184 4206.892090,6.007606 
	C4217.147949,6.304521 4227.401367,6.681490 4237.656738,6.996200 
	C4249.077637,7.346660 4260.498047,7.863730 4271.921875,7.965731 
	C4318.508301,8.381699 4365.095215,8.777031 4411.683105,8.938435 
	C4427.437012,8.993012 4443.193359,8.369797 4458.946777,7.987542 
	C4470.037109,7.718450 4481.124512,7.361554 4492.211426,6.990569 
	C4500.801758,6.703141 4509.388672,6.337568 4517.977051,5.999041 
	C4534.820312,5.335130 4551.665527,4.711989 4568.505859,3.979579 
	C4577.080566,3.606659 4585.645996,3.033296 4594.527832,2.532952 
	C4593.644043,12.042404 4592.932129,20.901798 4591.972168,29.734163 
	C4590.773926,40.759693 4589.333008,51.758663 4588.071289,62.777576 
	C4587.308105,69.438927 4586.775391,76.127060 4585.978516,82.783943 
	C4584.739746,93.136246 4583.309082,103.465599 4582.062012,113.816971 
	C4580.968262,122.895515 4580.001953,131.989639 4579.003418,141.079453 
	C4577.646973,153.415909 4576.324707,165.756134 4574.937500,178.089005 
	C4574.851562,178.852081 4574.469727,179.685898 4573.974121,180.275757 
	C4573.143555,181.265167 4572.109375,182.084259 4571.160645,182.974915 
	C4570.440918,181.869461 4569.176270,180.804581 4569.090332,179.651962 
	C4568.576172,172.745300 4568.782227,165.760849 4567.903320,158.910812 
	C4566.240723,145.955063 4564.132324,133.005264 4552.736816,124.246170 
	C4544.300293,117.761215 4534.679688,113.481873 4524.458496,111.142258 
	C4511.697266,108.221344 4498.775879,105.677750 4485.784180,104.171753 
	C4470.774902,102.431831 4455.624512,101.388977 4440.516602,101.118294 
	C4401.935547,100.427094 4363.344238,100.164452 4324.756348,100.068497 
	C4304.169434,100.017303 4283.580078,100.675415 4262.992188,100.994621 
	C4257.009766,101.087379 4255.009277,102.987221 4255.007812,108.927689 
	C4254.995117,177.425552 4255.000000,245.923401 4255.004395,314.421265 
	C4255.004395,315.072723 4255.063965,315.724182 4255.110352,316.680786 
	C4256.088867,316.790344 4257.021973,316.969238 4257.958008,316.988586 
	C4274.879395,317.337189 4291.799316,317.789642 4308.722656,317.975006 
	C4346.475586,318.388550 4384.229980,318.774109 4421.984863,318.938934 
	C4434.404297,318.993164 4446.831543,318.436218 4459.248047,317.973145 
	C4474.095703,317.419342 4488.943359,316.798065 4503.777344,315.962799 
	C4518.550781,315.130951 4533.330078,314.242615 4548.064453,312.909424 
	C4557.616211,312.045105 4567.083496,310.278320 4576.606934,309.052673 
	C4578.890137,308.758789 4581.243164,309.009003 4583.803223,309.009003 
	C4582.375488,319.213684 4576.559570,327.048157 4570.908691,334.658417 
	C4560.434082,348.764343 4549.373535,362.443024 4538.323730,376.111206 
	C4527.894043,389.012848 4512.989746,394.482941 4497.810059,398.834747 
	C4486.042969,402.208191 4473.973145,404.656250 4461.916016,406.840332 
	C4454.368652,408.207489 4446.604980,408.744995 4438.920410,408.927612 
	C4403.915527,409.759460 4368.903809,410.302917 4333.895508,411.019226 
	C4323.638184,411.229126 4313.380859,411.573822 4303.130859,412.023376 
	C4290.116699,412.594238 4277.106445,413.278748 4264.102539,414.045715 
	C4261.208984,414.216400 4258.347656,414.935181 4255.000000,415.478027 
	C4255.000000,416.932739 4255.000000,418.555054 4255.000000,420.177368 
	C4255.000000,497.508270 4254.999023,574.839172 4255.001465,652.170105 
	C4255.001953,659.151672 4256.694824,660.878174 4263.607422,660.998901 
	C4264.107422,661.007568 4264.607422,660.992126 4265.107422,661.001099 
	C4283.695312,661.333130 4302.287598,661.509521 4320.869629,662.051880 
	C4334.720703,662.456055 4348.555664,663.386353 4362.401855,663.987183 
	C4379.076172,664.710754 4395.752930,665.370728 4412.431641,665.986816 
	C4423.351074,666.390137 4434.313965,667.415588 4445.187988,666.840515 
	C4466.316406,665.722961 4487.437500,664.084290 4508.483887,661.910278 
	C4535.579590,659.111389 4561.244141,651.066162 4585.102051,637.904846 
	C4603.437500,627.789795 4619.606445,614.836853 4631.775879,597.554626 
	C4635.458496,592.324402 4637.755371,586.135254 4641.211914,580.720154 
	C4642.400391,578.858032 4643.535156,575.296753 4647.661133,576.919189 
	C4648.000000,579.700012 4648.000000,582.400024 4647.641602,585.648315 
	C4645.855957,589.733521 4643.821289,593.152954 4643.109863,596.828369 
	C4640.498535,610.328735 4638.324219,623.913757 4635.990234,637.467712 
	C4633.324707,652.946777 4631.076660,668.512207 4627.884766,683.881775 
	C4624.746582,698.993408 4621.047852,714.018921 4616.823730,728.862671 
	C4614.481934,737.092773 4609.038574,743.268799 4600.853516,747.105713 
	C4581.666016,756.100708 4561.209961,758.659546 4540.443359,760.028259 
	C4538.615234,760.148743 4536.813965,760.666687 4535.000000,761.000000 
	C4497.979004,761.000000 4460.958496,761.000000 4423.468750,761.000000 
z"/>
<path fill="#1D1D1B" opacity="1.000000" stroke="none" 
	d="
M1699.531372,1.000003 
	C1704.234985,1.666529 1708.448853,2.609368 1712.709839,2.937844 
	C1719.946533,3.495720 1727.213257,3.664063 1734.467163,4.000386 
	C1753.056030,4.862253 1771.335327,7.615010 1789.532471,11.631412 
	C1803.949829,14.813550 1817.788818,19.408829 1831.024292,25.669252 
	C1842.461914,31.079359 1852.947021,38.152943 1862.341064,46.791176 
	C1881.318848,64.242096 1895.764404,85.071037 1907.277954,107.900276 
	C1916.446899,126.080528 1922.488037,145.396667 1926.118408,165.526505 
	C1929.110474,182.117386 1930.856445,198.799316 1929.860840,215.549606 
	C1928.189087,243.678268 1922.515137,270.916077 1910.211426,296.625458 
	C1902.247803,313.266235 1892.388428,328.402832 1880.322754,342.359650 
	C1865.677246,359.300812 1847.962646,372.092377 1828.134155,381.812134 
	C1811.124268,390.150208 1793.022217,395.656250 1773.916016,396.989288 
	C1763.249023,397.733521 1752.533691,399.260284 1741.906738,398.821533 
	C1713.242554,397.638123 1685.334961,392.478973 1658.739624,381.046906 
	C1638.650513,372.411560 1620.783325,360.349518 1603.609009,347.082489 
	C1600.906860,344.995148 1598.343506,342.728302 1595.130981,340.058197 
	C1601.398682,335.654419 1607.688599,334.296143 1614.406982,335.218628 
	C1627.434937,337.007538 1640.372925,339.673157 1653.449463,340.826355 
	C1666.298462,341.959442 1679.326172,342.554291 1692.179810,341.785004 
	C1709.963135,340.720642 1727.313477,336.982178 1743.991333,330.118988 
	C1760.652588,323.262634 1774.771729,313.098236 1786.632812,299.770966 
	C1795.749268,289.527527 1802.139282,277.546082 1806.973145,264.754059 
	C1813.287476,248.044403 1815.925659,230.639603 1814.879883,212.911469 
	C1813.436646,188.441925 1808.330566,164.628525 1794.806274,143.815933 
	C1780.713623,122.128662 1760.815918,108.468674 1734.765015,103.825706 
	C1718.524414,100.931206 1702.280884,100.666382 1685.987305,101.096687 
	C1662.381470,101.720116 1638.784790,102.841782 1615.202515,104.096352 
	C1608.096313,104.474396 1601.037842,105.917198 1593.983643,107.036156 
	C1590.640259,107.566490 1588.829468,109.659561 1588.995605,113.199890 
	C1589.026733,113.865005 1589.000000,114.532845 1589.000000,115.199425 
	C1589.000000,284.010956 1588.702026,452.823578 1589.300537,621.632996 
	C1589.397705,648.992859 1593.527954,676.278748 1606.636475,701.279480 
	C1615.699707,718.564880 1629.747803,729.907532 1647.536743,736.965393 
	C1664.994873,743.892029 1683.248535,747.858093 1701.681274,751.190857 
	C1703.668457,751.550171 1705.215088,754.346313 1706.966064,756.012085 
	C1704.945679,757.007996 1702.920776,758.872314 1700.905762,758.861694 
	C1685.651123,758.781433 1670.399780,758.257935 1655.145020,758.016968 
	C1630.060669,757.620789 1604.975342,757.158691 1579.888916,757.041870 
	C1544.394409,756.876526 1508.896484,756.783325 1473.403687,757.089417 
	C1455.057861,757.247620 1436.719604,758.323792 1418.378906,759.010315 
	C1415.629639,759.113220 1412.192749,759.057190 1412.357300,755.813293 
	C1412.443359,754.118164 1415.885376,751.407043 1418.022095,751.185486 
	C1439.871460,748.920349 1454.181519,736.214539 1464.405884,718.024963 
	C1473.522583,701.805481 1478.621826,684.140381 1480.913940,665.765015 
	C1482.695557,651.480896 1483.963379,637.115173 1484.908203,622.749512 
	C1485.690430,610.858765 1485.951294,598.915039 1485.956665,586.994629 
	C1486.023071,440.513519 1486.229004,294.031769 1485.799316,147.551926 
	C1485.717163,119.541519 1482.676880,91.528519 1473.743896,64.700943 
	C1469.194946,51.039566 1462.989380,37.846165 1452.710693,27.398342 
	C1443.786865,18.327864 1432.782349,12.659678 1419.945923,10.980406 
	C1416.644287,10.548473 1411.934937,10.562505 1412.293457,6.155495 
	C1412.655884,1.699899 1417.352295,2.988773 1420.450195,3.046697 
	C1432.039307,3.263389 1443.634644,3.472085 1455.209595,4.046974 
	C1471.648315,4.863435 1488.058716,6.401126 1504.503418,6.905052 
	C1527.744019,7.617223 1551.009399,8.088246 1574.255493,7.842780 
	C1588.360718,7.693835 1602.441528,5.862411 1616.547852,5.036795 
	C1630.879639,4.197985 1645.230957,3.699886 1659.568726,2.956061 
	C1661.302002,2.866138 1663.004272,2.175065 1664.860352,1.381299 
	C1676.354248,1.000000 1687.708496,1.000000 1699.531372,1.000003 
z"/>
<path fill="#FFFFFF" opacity="1.000000" stroke="none" 
	d="
M548.531372,0.999998 
	C547.518921,1.333434 545.951782,1.467255 544.581665,2.058001 
	C543.283691,2.617645 541.279480,3.600269 541.224304,4.497622 
	C541.141907,5.837025 542.205200,8.137530 543.291992,8.500809 
	C547.538025,9.920121 552.017883,10.617910 556.351318,11.801567 
	C573.474121,16.478567 584.796021,28.003525 593.010193,43.124874 
	C601.580200,58.901352 606.615479,75.833977 608.960205,93.551086 
	C610.566467,105.687355 612.152893,117.861481 612.875671,130.070328 
	C613.737488,144.626755 613.853027,159.236923 613.966675,173.826340 
	C614.383972,227.411728 614.792664,280.997772 614.964050,334.584351 
	C615.130127,386.502045 615.000061,438.420746 615.000061,490.261230 
	C611.316406,486.338715 607.051941,481.960327 602.977478,477.411652 
	C599.157410,473.147064 595.653137,468.598450 591.809387,464.356567 
	C580.958557,452.382141 569.966309,440.536041 559.101685,428.574036 
	C546.704590,414.924713 534.381165,401.208527 522.033325,387.514526 
	C512.995239,377.491089 503.928741,367.492798 494.947906,357.418213 
	C481.935852,342.821442 469.037079,328.123657 455.997192,313.551971 
	C448.628632,305.317810 440.997772,297.318573 433.620514,289.092041 
	C420.120911,274.038300 406.748871,258.870270 393.269287,243.798492 
	C386.568878,236.306656 379.714050,228.953140 372.988770,221.483337 
	C358.346130,205.219711 343.751740,188.912659 329.117157,172.641785 
	C322.617889,165.415863 316.045715,158.255463 309.547394,151.028687 
	C295.026367,134.879883 280.559723,118.682060 266.012970,102.556503 
	C258.611267,94.351517 251.014023,86.322708 243.628845,78.103127 
	C229.781326,62.691067 216.083191,47.144577 202.206177,31.759306 
	C194.027054,22.691217 185.680130,13.771517 177.250168,4.936310 
	C176.184219,3.819118 174.158157,3.097657 172.568207,3.082089 
	C158.236923,2.941766 143.902802,2.897503 129.571213,3.021239 
	C98.983475,3.285326 68.397331,3.777896 37.809277,3.938451 
	C27.389889,3.993141 16.967651,3.297011 6.544364,3.038970 
	C4.971989,3.000044 3.386726,3.481663 1.403713,3.861247 
	C1.000000,3.000794 1.000000,2.001589 1.000000,1.001192 
	C183.354233,1.000000 365.708466,1.000000 548.531372,0.999998 
z"/>
<path fill="#FFFFFF" opacity="1.000000" stroke="none" 
	d="
M1.000000,8.468657 
	C4.570951,9.305174 8.049599,11.311904 11.728585,11.795945 
	C29.078623,14.078671 40.764626,24.229961 50.038502,38.154781 
	C60.431568,53.760078 65.977486,71.229149 68.837051,89.450096 
	C71.289566,105.077347 72.486877,120.911484 73.936554,136.681961 
	C74.646042,144.400192 74.954628,152.181580 74.957527,159.934570 
	C75.014610,312.389404 75.243073,464.844971 74.778389,617.298401 
	C74.693642,645.102844 71.236893,672.842407 61.955734,699.402954 
	C57.398537,712.444580 51.275875,724.828308 41.530243,734.777466 
	C32.743092,743.748108 21.802952,749.197144 9.204021,751.039734 
	C6.694176,751.406799 4.265071,752.325989 1.399364,752.995239 
	C1.000000,504.979095 1.000000,256.958221 1.000000,8.468657 
z"/>
<path fill="#FFFFFF" opacity="1.000000" stroke="none" 
	d="
M4535.468750,761.000000 
	C4536.813965,760.666687 4538.615234,760.148743 4540.443359,760.028259 
	C4561.209961,758.659546 4581.666016,756.100708 4600.853516,747.105713 
	C4609.038574,743.268799 4614.481934,737.092773 4616.823730,728.862671 
	C4621.047852,714.018921 4624.746582,698.993408 4627.884766,683.881775 
	C4631.076660,668.512207 4633.324707,652.946777 4635.990234,637.467712 
	C4638.324219,623.913757 4640.498535,610.328735 4643.109863,596.828369 
	C4643.821289,593.152954 4645.855957,589.733521 4647.641602,586.098267 
	C4648.000000,644.244568 4648.000000,702.489136 4648.000000,761.000000 
	C4610.646484,761.000000 4573.291992,761.000000 4535.468750,761.000000 
z"/>
<path fill="#FFFFFF" opacity="1.000000" stroke="none" 
	d="
M766.531372,1.000002 
	C764.789124,1.666664 762.584290,2.892797 760.366394,2.917036 
	C719.497375,3.363681 678.626892,3.681764 637.756470,3.989035 
	C627.936096,4.062866 618.106995,4.248384 608.295471,3.945287 
	C590.973694,3.410187 573.662292,2.538989 556.173279,1.404242 
	C626.020874,1.000000 696.041809,1.000000 766.531372,1.000002 
z"/>
<path fill="#FFFFFF" opacity="1.000000" stroke="none" 
	d="
M4030.531250,1.000015 
	C4028.120605,1.666687 4025.247803,2.881691 4022.360840,2.916955 
	C3984.822266,3.375486 3947.281738,3.695666 3909.741455,3.984125 
	C3896.758789,4.083884 3883.767578,4.276888 3870.793457,3.931041 
	C3853.970215,3.482584 3837.160400,2.538080 3820.172363,1.403558 
	C3890.020752,1.000000 3960.041748,1.000000 4030.531250,1.000015 
z"/>
<path fill="#FFFFFF" opacity="1.000000" stroke="none" 
	d="
M3222.531250,1.000007 
	C3219.610107,1.666636 3216.231934,2.839228 3212.828369,2.917494 
	C3191.275146,3.413145 3169.717041,3.786820 3148.158691,3.964850 
	C3128.188965,4.129759 3108.216064,4.130100 3088.246338,3.963186 
	C3068.518311,3.798290 3048.791748,3.398604 3029.067627,2.958072 
	C3023.487549,2.833446 3017.918701,2.204671 3012.172363,1.403555 
	C3082.020752,1.000000 3152.041748,1.000000 3222.531250,1.000007 
z"/>
</svg>